Savages.2012.TS.XViD.AC3.SeeN-CM8



Thx SeeN


Sources:
Video: KiNGDOM - Thx
Audio: Thx M8

Video: 688x320 @ 1500Kbps 2Pass
Audio: English Line Audio AC3 2.0 @ 128Kbps
Sample: Yes, included

 
http://www.imdb.com/title/tt1615065/


Complete name                            : Savages.2012.TS.XViD.AC3.SeeN-CM8.avi
Format                                   : AVI
Format/Info                              : Audio Video Interleave
File size                                : 1.45 GiB
Duration                                 : 2h 5mn
Overall bit rate                         : 1 661 Kbps
Writing library                          : VirtualDub build 34703/release

Video
ID                                       : 0
Format                                   : MPEG-4 Visual
Format profile                           : Advanced Simple@L5
Codec ID                                 : XVID
Bit rate                                 : 1 521 Kbps
Width                                    : 688 pixels
Height                                   : 320 pixels
Frame rate                               : 29.970 fps
Stream size                              : 1.33 GiB (92%)

Audio
ID                                       : 1
Format                                   : AC-3
Format/Info                              : Audio Coding 3
Bit rate                                 : 128 Kbps
Channel(s)                               : 2 channels
Channel positions                        : Front: L R
Sampling rate                            : 48.0 KHz
Stream size                              : 115 MiB (8%)


Plot:
Pot growers Ben and Chon face off against the Mexican
drug cartel who kidnapped their shared girlfriend.


Director: Oliver Stone
Writers: Shane Salerno (screenplay), Don Winslow (screenplay)
Stars: Aaron Johnson, Taylor Kitsch and Blake Lively 

